<svg width="133" height="39" viewBox="0 0 133 39" fill="none" xmlns="http://www.w3.org/2000/svg">
<path fill-rule="evenodd" clip-rule="evenodd" d="M38.9253 31.6481L42.7984 38.3565H34.7153L30.8422 31.6481H38.9253ZM34.8837 24.6479L21.5802 1.60547L0.361938 38.3565H8.44496L21.5801 15.6057L26.8006 24.6479H34.8837Z" fill="white"/>
<path fill-rule="evenodd" clip-rule="evenodd" d="M86.9776 31.6481L90.8507 38.3565H82.7677L78.8945 31.6481L86.9776 31.6481ZM82.936 24.6479L69.6325 1.60547L48.4142 38.3565H56.4973L69.6325 15.6057L74.853 24.6479H82.936Z" fill="white"/>
<path fill-rule="evenodd" clip-rule="evenodd" d="M116.083 0.438721C121.525 0.438721 126.455 2.5662 130.039 6.01104L125.089 10.9616C122.772 8.78314 119.592 7.4389 116.083 7.4389C108.995 7.4389 103.249 12.9236 103.249 19.6893C103.249 26.4549 108.995 31.9396 116.083 31.9396C120.055 31.9396 123.606 30.2168 125.96 27.5113L130.917 32.468C127.284 36.4382 121.984 38.9398 116.083 38.9398C105.129 38.9398 96.2489 30.321 96.2489 19.6893C96.2489 9.05748 105.129 0.438721 116.083 0.438721ZM133 16.7726H116.083V23.7728H126L133 16.7726Z" fill="white"/>
</svg>
