<svg width="77" height="71" viewBox="0 0 77 71" fill="none" xmlns="http://www.w3.org/2000/svg">
<path d="M61.9887 61.2282L38.5161 20.9589L15.0434 61.2282H20.5341L38.5161 30.3786L56.498 61.2282H61.9887Z" fill="white"/>
<path d="M59.1061 70.4125L50.8701 56.2829H38.9916V61.9347H48.1615L49.6028 64.4074H26.9538L38.2783 44.9792L44.0435 54.8699H50.0465L38.5161 35.0885L17.926 70.4125H59.1061Z" fill="white"/>
<path d="M58.9629 6.59381C58.9629 3.2969 57.0608 1.17747 53.7323 0C55.8721 1.88395 55.9515 4.17563 55.6343 5.18085C54.7993 7.82753 53.5373 8.44105 51.8417 9.26541C51.1233 9.61466 50.3272 10.0017 49.4527 10.5972C47.5894 11.866 46.0684 13.392 45.0014 15.1294C43.5763 17.8325 43.2974 19.8678 43.3204 24.0203L57.3225 48.0419C57.3092 44.2226 57.4972 42.2363 59.518 40.0338L58.5906 38.4429C58.0026 37.0165 57.5364 35.3324 57.5364 33.6755C57.5364 30.8939 58.9041 29.6524 60.141 28.5298C60.5795 28.1317 61.0016 27.7487 61.3404 27.3172C61.4501 27.1776 61.5581 27.0425 61.6641 26.91L61.6655 26.9083L61.6695 26.9033C62.8133 25.4736 63.7179 24.3428 63.7179 21.1944C63.7179 18.0101 62.2914 16.4845 59.6761 15.0716C61.5782 16.9555 61.3404 19.3104 61.3404 19.3104C61.3404 22.3018 58.8922 24.7268 55.8721 24.7268C52.852 24.7268 50.6415 22.3018 50.6415 19.3104C50.6415 17.5939 51.0671 16.0717 54.2078 13.8941C56.5853 12.2456 58.9629 10.1222 58.9629 6.59381Z" fill="white"/>
<path d="M65.6089 41.347C64.2148 42.2975 63.0702 43.4358 62.2549 44.7294C60.6143 47.3877 60.5069 49.6603 61.0279 54.3989L66.5186 63.8186H58.0448L61.4765 69.706H76.8136L72.3727 62.0872C72.0457 61.1477 71.8126 60.1068 71.8126 59.0795C71.8126 56.9422 72.8623 55.9883 73.8115 55.1257C74.1482 54.8199 74.472 54.5255 74.732 54.194C74.8175 54.085 74.9018 53.9795 74.9845 53.8761C75.8624 52.7775 76.5566 51.9087 76.5566 49.4895C76.5566 47.0428 75.4618 45.8706 73.4547 44.7849C74.9145 46.2325 74.732 48.0419 74.732 48.0419C74.732 50.3404 72.8531 52.2036 70.5354 52.2036C68.2177 52.2036 66.5212 50.3404 66.5212 48.0419C66.5212 46.723 66.8479 45.5534 69.2581 43.8802C71.0828 42.6136 72.9074 40.9821 72.9074 38.271C72.9074 35.7377 71.4477 34.1093 68.8932 33.2045C70.5354 34.6521 70.5963 36.4129 70.3529 37.1853C69.7121 39.2189 68.7436 39.6903 67.4423 40.3237C66.891 40.5921 66.28 40.8895 65.6089 41.347Z" fill="white"/>
<path d="M15.0802 69.706H0.218541L4.34544 62.6259C4.50257 61.9905 4.60026 61.3291 4.60026 60.6734C4.60026 58.599 3.58238 57.6731 2.6619 56.8359C2.33557 56.5391 2.02149 56.2534 1.76934 55.9316C1.68645 55.8258 1.60472 55.7235 1.52456 55.6231C0.673267 54.5568 0 53.7135 0 51.3655C0 48.9907 1.06159 47.853 3.00785 46.7993C1.59241 48.2043 1.76934 49.9605 1.76934 49.9605C1.76934 52.1913 3.59126 53.9998 5.83878 53.9998C8.08629 53.9998 9.73129 52.1913 9.73129 49.9605C9.73129 48.6804 9.41454 47.5451 7.07729 45.9212C5.30801 44.6918 3.53867 43.1082 3.53867 40.4769C3.53867 38.0182 4.95411 36.4376 7.43119 35.5595C5.83878 36.9644 5.77969 38.6735 6.0157 39.4232C6.63713 41.3969 7.57625 41.8545 8.83809 42.4693C9.37269 42.7297 9.96516 43.0184 10.616 43.4625C11.8898 44.3317 12.9486 45.3628 13.7281 46.5292C15.2518 49.9752 15.2209 52.3693 14.4943 56.9893L10.5136 63.8186H18.5119L15.0802 69.706Z" fill="white"/>
<path d="M14.9892 33.4752C14.5506 33.0771 14.1285 32.694 13.7897 32.2626C13.6823 32.1258 13.5764 31.9933 13.4725 31.8634L13.4647 31.8536L13.4606 31.8487C12.3168 30.419 11.4122 29.2882 11.4122 26.1397C11.4122 22.9555 12.8387 21.4299 15.454 20.0169C13.5519 21.9009 13.7897 24.2558 13.7897 24.2558C13.7897 27.2472 16.2379 29.6721 19.258 29.6721C22.2781 29.6721 24.4886 27.2472 24.4886 24.2558C24.4886 22.5393 24.063 21.017 20.9223 18.8395C18.5448 17.191 16.1672 15.0676 16.1672 11.5392C16.1672 8.24226 18.0693 6.12282 21.3978 4.94536C19.258 6.8293 19.1786 9.12099 19.4958 10.1262C20.3308 12.7729 21.5928 13.3864 23.2885 14.2108C24.0068 14.56 24.8029 14.9471 25.6774 15.5426C27.2546 16.6166 28.5867 17.875 29.6057 19.2898C31.6343 22.7664 31.6524 24.6574 31.3835 28.0146L17.2397 52.2795C17.1116 48.6125 16.9442 46.6315 15.454 44.0372C15.5449 43.8812 15.6376 43.7242 15.7309 43.5662C16.6337 42.0369 17.5938 40.4107 17.5938 38.6209C17.5938 35.8392 16.226 34.5978 14.9892 33.4752Z" fill="white"/>
<path d="M38.5161 4.00338L31.9272 15.3071C33.5535 17.5732 33.9019 19.4974 33.9863 23.5493L38.5161 15.778L41.4714 20.8482C41.5569 18.0687 41.7721 16.4686 43.8695 13.1876L38.5161 4.00338Z" fill="white"/>
</svg>
